<svg width="698" height="532" viewBox="0 0 698 532" fill="none" xmlns="http://www.w3.org/2000/svg">
<g clip-path="url(#clip0_1_2)">
<path d="M131.013 385.322C133.94 383.759 137.585 384.87 139.146 387.801L159.352 425.738C160.913 428.669 159.804 432.319 156.877 433.882C154.14 435.344 150.779 434.471 149.07 431.948C148.649 432.344 148.163 432.688 147.633 432.972C144.289 434.757 140.121 433.487 138.338 430.139C137.964 429.437 137.723 428.689 137.608 427.946C134.172 428.393 130.67 426.706 128.942 423.462C127.331 420.437 127.707 416.873 129.628 414.288C128.253 413.694 127.073 412.644 126.315 411.221C124.764 408.309 125.517 404.789 127.927 402.734C127.497 402.294 127.123 401.775 126.82 401.205C125.31 398.37 125.988 394.938 128.258 392.873C127.128 390.065 128.276 386.784 131.013 385.322ZM144.652 378.038C147.389 376.577 150.741 377.455 152.449 379.954C155.435 379.211 158.645 380.555 160.16 383.4C160.463 383.969 160.686 384.569 160.812 385.172C163.853 384.303 167.197 385.648 168.748 388.56C169.506 389.982 169.72 391.549 169.446 393.023C172.66 392.866 175.825 394.538 177.437 397.563C179.164 400.807 178.612 404.659 176.328 407.268C176.879 407.777 177.366 408.395 177.74 409.096C179.523 412.444 178.254 416.618 174.911 418.404C174.38 418.687 173.824 418.899 173.261 419.029C174.401 421.855 173.253 425.136 170.516 426.598C167.589 428.161 163.944 427.05 162.383 424.12L142.177 386.182C140.616 383.252 141.725 379.601 144.652 378.038Z" fill="black" fill-opacity="0.8"/>
<path d="M58.4622 282.63C58.8509 283.69 58.5229 284.872 57.6847 285.628L52.4245 290.428C52.5581 291.44 52.631 292.475 52.631 293.523C52.631 294.571 52.5581 295.607 52.4245 296.618L57.6847 301.419C58.5229 302.174 58.8509 303.356 58.4622 304.416C57.9276 305.866 57.2838 307.255 56.5427 308.596L55.9718 309.583C55.17 310.923 54.271 312.19 53.287 313.384C52.5702 314.261 51.3797 314.554 50.3107 314.213L43.5441 312.056C41.9162 313.311 40.1182 314.359 38.1988 315.151L36.6803 322.108C36.4373 323.217 35.5869 324.094 34.4693 324.277C32.7928 324.557 31.0678 324.703 29.3063 324.703C27.5448 324.703 25.8197 324.557 24.1432 324.277C23.0256 324.094 22.1752 323.217 21.9322 322.108L20.4137 315.151C18.4943 314.359 16.6963 313.311 15.0685 312.056L8.31402 314.225C7.24497 314.566 6.05444 314.261 5.33769 313.396C4.35367 312.202 3.4547 310.935 2.65291 309.595L2.08194 308.608C1.3409 307.267 0.697039 305.878 0.162515 304.428C-0.226231 303.368 0.101773 302.187 0.940005 301.431L6.20021 296.63C6.06658 295.607 5.99369 294.571 5.99369 293.523C5.99369 292.475 6.06658 291.44 6.20021 290.428L0.940005 285.628C0.101773 284.872 -0.226231 283.69 0.162515 282.63C0.697039 281.18 1.3409 279.791 2.08194 278.451L2.65291 277.464C3.4547 276.124 4.35367 274.857 5.33769 273.663C6.05444 272.785 7.24497 272.493 8.31402 272.834L15.0806 274.991C16.7085 273.736 18.5064 272.688 20.4259 271.896L21.9444 264.939C22.1874 263.83 23.0377 262.952 24.1554 262.77C25.8319 262.477 27.5569 262.331 29.3184 262.331C31.0799 262.331 32.805 262.477 34.4814 262.758C35.5991 262.94 36.4495 263.818 36.6924 264.926L38.211 271.884C40.1304 272.676 41.9283 273.724 43.5562 274.979L50.3228 272.822C51.3919 272.481 52.5824 272.785 53.2991 273.65C54.2831 274.845 55.1821 276.112 55.9839 277.452L56.5549 278.439C57.2959 279.779 57.9398 281.168 58.4743 282.618L58.4622 282.63ZM29.3184 303.271C31.896 303.271 34.3679 302.244 36.1905 300.416C38.0131 298.588 39.037 296.109 39.037 293.523C39.037 290.938 38.0131 288.459 36.1905 286.631C34.3679 284.803 31.896 283.776 29.3184 283.776C26.7409 283.776 24.2689 284.803 22.4463 286.631C20.6237 288.459 19.5998 290.938 19.5998 293.523C19.5998 296.109 20.6237 298.588 22.4463 300.416C24.2689 302.244 26.7409 303.271 29.3184 303.271Z" fill="black" fill-opacity="0.8"/>
<path d="M554.869 300.894C554.84 301.591 554.369 302.185 553.705 302.412L549.528 303.872C549.364 304.481 549.158 305.088 548.908 305.685C548.658 306.282 548.369 306.854 548.05 307.397L549.936 311.406C550.238 312.039 550.145 312.791 549.668 313.301C549.014 313.997 548.311 314.632 547.564 315.216L547 315.64C546.218 316.209 545.397 316.713 544.545 317.155C543.923 317.481 543.167 317.359 542.632 316.906L539.247 314.038C538.01 314.359 536.723 314.52 535.428 314.506L532.892 318.101C532.487 318.673 531.788 318.967 531.1 318.8C530.067 318.554 529.038 318.219 528.023 317.793C527.008 317.366 526.049 316.865 525.149 316.299C524.549 315.925 524.268 315.219 524.393 314.529L525.179 310.199C524.262 309.283 523.476 308.25 522.837 307.141L518.427 306.74C517.729 306.676 517.116 306.214 516.909 305.548C516.627 304.629 516.412 303.69 516.27 302.732L516.176 302.032C516.069 301.089 516.03 300.142 516.068 299.187C516.097 298.489 516.568 297.895 517.231 297.668L521.409 296.208C521.576 295.593 521.781 294.985 522.031 294.389C522.282 293.792 522.571 293.22 522.889 292.676L521.004 288.668C520.701 288.035 520.794 287.282 521.271 286.773C521.926 286.076 522.628 285.441 523.375 284.857L523.94 284.434C524.722 283.864 525.542 283.36 526.395 282.919C527.017 282.593 527.773 282.715 528.308 283.168L531.692 286.035C532.93 285.715 534.216 285.553 535.512 285.567L538.048 281.973C538.452 281.4 539.152 281.106 539.84 281.273C540.875 281.513 541.904 281.847 542.92 282.274C543.935 282.7 544.894 283.202 545.793 283.767C546.394 284.142 546.674 284.848 546.55 285.538L545.764 289.868C546.681 290.784 547.467 291.816 548.106 292.925L552.52 293.336C553.217 293.401 553.831 293.863 554.037 294.529C554.319 295.447 554.535 296.387 554.677 297.344L554.771 298.045C554.878 298.987 554.917 299.934 554.879 300.89L554.869 300.894ZM533.146 305.59C534.632 306.214 536.302 306.228 537.788 305.628C539.275 305.029 540.457 303.865 541.074 302.392C541.691 300.92 541.693 299.26 541.079 297.777C540.465 296.295 539.286 295.111 537.8 294.487C536.315 293.863 534.645 293.849 533.158 294.448C531.672 295.048 530.49 296.212 529.873 297.684C529.255 299.157 529.254 300.817 529.868 302.299C530.482 303.782 531.661 304.965 533.146 305.59Z" fill="black" fill-opacity="0.8"/>
<path d="M245.41 81.6945C245.604 82.2245 245.44 82.8155 245.021 83.1932L242.391 85.5935C242.458 86.0992 242.494 86.617 242.494 87.141C242.494 87.6649 242.458 88.1828 242.391 88.6884L245.021 91.0888C245.44 91.4665 245.604 92.0574 245.41 92.5874C245.142 93.3124 244.82 94.0069 244.45 94.6771L244.164 95.1706C243.763 95.8407 243.314 96.4743 242.822 97.0713C242.464 97.51 241.868 97.6562 241.334 97.4856L237.95 96.4073C237.137 97.0348 236.238 97.5587 235.278 97.9547L234.519 101.433C234.397 101.988 233.972 102.426 233.413 102.518C232.575 102.658 231.712 102.731 230.832 102.731C229.951 102.731 229.088 102.658 228.25 102.518C227.691 102.426 227.266 101.988 227.145 101.433L226.385 97.9547C225.426 97.5587 224.527 97.0348 223.713 96.4073L220.335 97.4917C219.801 97.6623 219.206 97.51 218.847 97.0774C218.355 96.4804 217.906 95.8468 217.505 95.1767L217.219 94.6832C216.849 94.013 216.527 93.3185 216.26 92.5935C216.065 92.0635 216.229 91.4726 216.648 91.0948L219.279 88.6945C219.212 88.1828 219.175 87.6649 219.175 87.141C219.175 86.617 219.212 86.0992 219.279 85.5935L216.648 83.1932C216.229 82.8155 216.065 82.2245 216.26 81.6945C216.527 80.9695 216.849 80.275 217.219 79.6049L217.505 79.1114C217.906 78.4413 218.355 77.8077 218.847 77.2106C219.206 76.772 219.801 76.6258 220.335 76.7963L223.719 77.8747C224.533 77.2472 225.432 76.7232 226.391 76.3272L227.151 72.8486C227.272 72.2942 227.697 71.8555 228.256 71.7642C229.094 71.6179 229.957 71.5448 230.838 71.5448C231.718 71.5448 232.581 71.6179 233.419 71.7581C233.978 71.8494 234.403 72.2881 234.525 72.8425L235.284 76.3212C236.244 76.7171 237.143 77.2411 237.957 77.8686L241.34 76.7903C241.874 76.6197 242.47 76.772 242.828 77.2045C243.32 77.8016 243.77 78.4352 244.17 79.1053L244.456 79.5988C244.826 80.2689 245.148 80.9634 245.416 81.6884L245.41 81.6945ZM230.838 92.0148C232.126 92.0148 233.362 91.5013 234.274 90.5873C235.185 89.6733 235.697 88.4336 235.697 87.141C235.697 85.8484 235.185 84.6087 234.274 83.6947C233.362 82.7807 232.126 82.2672 230.838 82.2672C229.549 82.2672 228.313 82.7807 227.402 83.6947C226.49 84.6087 225.978 85.8484 225.978 87.141C225.978 88.4336 226.49 89.6733 227.402 90.5873C228.313 91.5013 229.549 92.0148 230.838 92.0148Z" fill="black" fill-opacity="0.8"/>
<path d="M602.323 113.72L604.586 115.986C607.003 118.407 607.003 122.33 604.586 124.752L599.131 130.214L588.107 119.182L593.561 113.72C595.979 111.298 599.895 111.298 602.313 113.72H602.323ZM561.28 146.06L585.921 121.371L596.946 132.413L572.295 157.092C571.647 157.741 570.835 158.216 569.954 158.467L559.897 161.344C559.084 161.577 558.214 161.354 557.615 160.753C557.015 160.153 556.793 159.281 557.025 158.467L559.897 148.394C560.148 147.503 560.622 146.699 561.27 146.05L561.28 146.06ZM581.057 121.865L566.937 136.006L558.485 127.531C556.676 125.72 556.676 122.776 558.485 120.955L566.038 113.4C567.846 111.589 570.786 111.589 572.604 113.4L574.519 115.318C574.49 115.347 574.451 115.376 574.422 115.405L568.233 121.604C567.633 122.204 567.633 123.192 568.233 123.793C568.833 124.393 569.819 124.393 570.419 123.793L576.608 117.594C576.637 117.565 576.666 117.526 576.695 117.497L581.057 121.865ZM596.453 137.285L600.814 141.653C600.785 141.682 600.746 141.711 600.717 141.74L594.528 147.939C593.928 148.54 593.928 149.528 594.528 150.128C595.128 150.729 596.114 150.729 596.714 150.128L602.903 143.929C602.932 143.9 602.961 143.861 602.99 143.832L604.905 145.76C606.713 147.571 606.713 150.516 604.905 152.336L597.352 159.891C595.543 161.702 592.604 161.702 590.785 159.891L582.333 151.426L596.453 137.285Z" fill="black" fill-opacity="0.8"/>
<path d="M481.047 63.847C480.455 63.5118 479.704 63.7205 479.369 64.3133C479.034 64.9061 479.243 65.6603 479.835 65.9954C480.745 66.5139 481.3 67.0925 481.667 67.6902C480.148 68.2244 478.802 68.4441 477.613 68.4441C475.872 68.4425 474.448 67.9824 473.247 67.2775C472.05 66.5709 471.082 65.6049 470.347 64.6026C469.137 62.9506 467.562 61.4791 465.707 60.4056C463.853 59.3353 461.709 58.6665 459.408 58.6665C457.391 58.6651 455.264 59.1852 453.157 60.3438C452.296 60.8165 451.549 61.3698 450.899 61.9736C448.336 62.9616 446.127 63.3172 444.259 63.3172C441.597 63.3172 439.609 62.6011 438.279 61.8976C437.616 61.5466 437.119 61.1972 436.798 60.9444C436.637 60.8164 436.519 60.7151 436.446 60.6488L436.371 60.576L436.359 60.565H436.358C435.886 60.0796 435.109 60.0671 434.621 60.5381C434.131 61.0106 434.117 61.7916 434.589 62.2816C434.658 62.3512 435.505 63.2191 437.126 64.0791C437.836 64.4554 438.706 64.8252 439.711 65.1272C439.444 65.5034 439.079 66.0535 438.682 66.7538C437.919 68.1022 437.042 69.9946 436.595 72.2268C436.462 72.8938 436.894 73.5437 437.561 73.678C438.228 73.8107 438.878 73.3774 439.01 72.709C439.385 70.8294 440.151 69.1585 440.825 67.9712C441.161 67.3768 441.473 66.9041 441.697 66.5862C441.81 66.4267 441.899 66.3049 441.96 66.2258C441.989 66.1877 442.012 66.1578 442.026 66.1404L442.04 66.1229L442.042 66.1213L442.042 66.1197C442.156 65.9806 442.232 65.8241 442.275 65.6598C442.902 65.7371 443.56 65.7846 444.259 65.783C445.554 65.7846 446.973 65.6313 448.5 65.2835C447.743 66.9181 447.431 68.6239 447.431 70.1873C447.434 71.7619 447.733 73.191 448.267 74.3292C448.558 74.9458 449.293 75.2081 449.907 74.9173C450.522 74.6263 450.785 73.8897 450.494 73.2749V73.2733C450.151 72.5587 449.891 71.4332 449.895 70.1873C449.894 68.8437 450.184 67.364 450.878 66.0139C451.577 64.6639 452.662 63.4324 454.342 62.506C456.116 61.5338 457.809 61.1353 459.408 61.1339C461.229 61.1339 462.945 61.6604 464.476 62.5423C466.006 63.426 467.342 64.6701 468.36 66.0611C469.256 67.2848 470.455 68.4925 471.997 69.4031C473.536 70.3137 475.426 70.9127 477.613 70.9111C479.059 70.9111 480.631 70.6487 482.319 70.0732L482.323 70.1617C482.323 70.7656 482.229 71.3157 482.135 71.7046C482.088 71.899 482.042 72.0525 482.009 72.152C481.993 72.201 481.98 72.2373 481.972 72.2578L481.965 72.2768L481.965 72.2799H481.965C481.716 72.9107 482.023 73.6253 482.653 73.8781C483.284 74.1312 484.002 73.8228 484.254 73.1905C484.286 73.102 484.782 71.8705 484.786 70.1615C484.786 69.1813 484.615 68.0305 484.046 66.8941C483.481 65.7582 482.505 64.6675 481.047 63.847Z" fill="black" fill-opacity="0.8"/>
<path d="M483.794 55.6092C480.408 55.6092 477.688 54.3603 475.807 52.7257C474.869 51.91 474.147 50.9978 473.673 50.1253C473.196 49.251 472.978 48.4195 472.981 47.7966C472.981 47.1152 472.429 46.5636 471.749 46.5636C471.068 46.5636 470.517 47.1152 470.517 47.7966C470.52 48.9569 470.883 50.1458 471.509 51.303C472.165 52.5077 473.124 53.6774 474.342 54.708C474.096 55.0495 473.757 55.4892 473.325 55.9601C472.386 56.9861 471.033 58.1227 469.418 58.6966C468.777 58.9257 468.444 59.6325 468.673 60.2726C468.901 60.9145 469.606 61.2498 470.247 61.0203C472.439 60.2314 474.08 58.7931 475.193 57.5693C475.688 57.0223 476.074 56.5228 476.359 56.1229C478.398 57.3006 480.915 58.0783 483.794 58.0767C484.474 58.0767 485.027 57.5251 485.027 56.8437C485.026 56.1626 484.474 55.6092 483.794 55.6092Z" fill="black" fill-opacity="0.8"/>
<path d="M475.581 79.7329C473.277 79.7329 471.445 79.2871 469.974 78.6058C467.772 77.5814 466.343 76.007 465.444 74.4371C464.995 73.6545 464.686 72.8753 464.491 72.1907C464.295 71.5094 464.219 70.9118 464.22 70.5498C464.22 69.8686 463.669 69.3166 462.989 69.3166C462.307 69.3166 461.757 69.8684 461.757 70.5498C461.757 70.9941 461.809 71.4857 461.918 72.0263C462.105 72.9684 462.463 74.0578 463.043 75.1801C463.912 76.8622 465.291 78.6263 467.353 79.9671C467.87 80.3052 468.428 80.612 469.03 80.8869C469.124 81.2917 469.254 82.0124 469.253 82.8819C469.253 83.5144 469.185 84.2193 468.994 84.9419C468.803 85.6643 468.492 86.4011 467.998 87.1171C467.611 87.6783 467.75 88.4465 468.31 88.8339C468.87 89.2212 469.637 89.0821 470.024 88.5225C470.696 87.5487 471.122 86.5369 471.377 85.5726C471.632 84.6068 471.717 83.6883 471.717 82.8819C471.717 82.4788 471.695 82.1057 471.662 81.7644C472.849 82.0411 474.15 82.2023 475.581 82.2006C476.261 82.2006 476.813 81.6474 476.813 80.966C476.813 80.2862 476.261 79.7329 475.581 79.7329Z" fill="black" fill-opacity="0.8"/>
<path d="M492.315 61.2024C491.705 60.6761 491.047 60.2445 490.352 59.9377C489.658 59.631 488.925 59.4476 488.174 59.4476C487.494 59.4476 486.942 59.9993 486.942 60.6807C486.942 61.3637 487.494 61.9154 488.174 61.9154C488.627 61.9138 489.2 62.0719 489.803 62.4212C490.706 62.9398 491.644 63.8708 492.327 65.0375C493.014 66.2025 493.449 67.5891 493.448 69.0212C493.442 70.5974 492.947 72.2414 491.605 73.8762C491.172 74.4025 491.246 75.1787 491.771 75.6134C492.295 76.0466 493.072 75.9723 493.505 75.4474C495.196 73.4047 495.917 71.1394 495.912 69.0212C495.912 67.7344 495.654 66.5031 495.222 65.3806C494.571 63.6983 493.535 62.2583 492.315 61.2024Z" fill="black" fill-opacity="0.8"/>
<path d="M449.42 54.6259V54.6243C450.266 53.6204 451.471 52.8332 452.846 52.3037C454.217 51.7725 455.749 51.5069 457.182 51.5085C458.577 51.5053 459.876 51.7629 460.829 52.2072C461.448 52.4917 462.179 52.223 462.465 51.6034C462.75 50.9851 462.48 50.2533 461.863 49.967C460.486 49.3331 458.869 49.0422 457.182 49.0407C455.45 49.0407 453.643 49.3538 451.96 50.0001C450.281 50.6482 448.717 51.6381 447.539 53.0307C447.099 53.5508 447.164 54.33 447.683 54.7696C448.203 55.2109 448.98 55.1444 449.42 54.6259Z" fill="black" fill-opacity="0.8"/>
<path d="M505.177 51.0612L505.179 51.0647L505.177 51.0612Z" fill="black" fill-opacity="0.8"/>
<path d="M479.31 92.2454V92.2489H479.308L479.31 92.2454Z" fill="black" fill-opacity="0.8"/>
<path d="M507.059 59.4127C506.841 59.1914 506.607 58.9811 506.371 58.7742C506.495 58.0833 506.566 57.3798 506.566 56.6653C506.567 54.7714 506.116 52.8429 505.178 51.0628C504.105 49.0219 502.516 47.4029 500.661 46.3059C499.364 45.5376 497.936 45.0255 496.457 44.7867C496.098 43.5079 495.535 42.2905 494.779 41.1856C493.52 39.3456 491.73 37.8217 489.539 36.8778C487.972 36.2028 486.328 35.8787 484.713 35.8787C484.713 35.8787 484.663 35.8771 484.572 35.8851C482.522 35.909 480.525 36.448 478.759 37.4328C478.069 36.5997 477.27 35.8583 476.381 35.2338C474.433 33.8633 472.051 33.0506 469.502 33.0253C469.472 33.0237 469.437 33.0223 469.394 33.0207C469.388 33.0207 469.383 33.0207 469.376 33.0207H469.375H469.373H469.372C469.369 33.0207 469.365 33.0207 469.361 33.0207C469.337 33.0207 469.309 33.0223 469.272 33.0237C467.053 33.0412 464.955 33.6546 463.163 34.7167C462.387 35.1752 461.678 35.7268 461.028 36.3403C459.171 35.1814 456.977 34.5048 454.641 34.4938L454.632 34.4924H454.577C454.575 34.4924 454.574 34.4924 454.573 34.4924C454.57 34.4924 454.567 34.4924 454.563 34.4924C454.534 34.4924 454.499 34.4938 454.454 34.497C451.968 34.5207 449.637 35.2922 447.715 36.6011C446.601 37.3584 445.626 38.2959 444.82 39.3691C443.801 39.0925 442.736 38.9424 441.648 38.9424C440.743 38.9424 439.824 39.0452 438.91 39.2539C436.219 39.8719 433.919 41.35 432.272 43.3245H432.273C431.116 44.7077 430.282 46.339 429.824 48.0986C428.068 48.6948 426.414 49.6939 425.03 51.1053C425.029 51.1069 425.028 51.1086 425.026 51.1102C422.705 53.4798 421.537 56.5798 421.538 59.6577V59.6624V59.6688C421.538 59.6688 421.538 59.6718 421.538 59.675V59.7081H421.539C421.542 60.7783 421.686 61.8454 421.968 62.8824C420.386 65.0026 419.534 67.5777 419.533 70.2131C419.532 72.1638 420.002 74.1477 420.978 75.9768C422.075 78.0303 423.689 79.6569 425.566 80.7587C426.883 81.5317 428.328 82.0425 429.825 82.2827C430.622 84.428 431.99 86.2791 433.739 87.6497C435.819 89.2828 438.444 90.2486 441.257 90.2486C441.549 90.2486 441.84 90.2394 442.131 90.2171H442.138H442.142H442.143H442.144C443.385 90.127 444.575 89.8473 445.683 89.4156C446.42 90.598 447.345 91.6428 448.421 92.5046C450.501 94.1723 453.146 95.1684 455.981 95.1811C455.991 95.1827 456 95.1827 456.009 95.1827C456.018 95.1827 456.028 95.1827 456.037 95.1827H456.038C456.039 95.1827 456.039 95.1827 456.039 95.1827H456.041H456.054C456.058 95.1827 456.06 95.1827 456.064 95.1827L456.094 95.1811H456.103C456.33 95.1795 456.557 95.17 456.783 95.1558H456.787L456.92 95.1526C457.935 95.0781 458.916 94.8805 459.845 94.574C461.015 96.3146 462.645 97.783 464.662 98.757H464.661C466.363 99.579 468.179 99.9726 469.96 99.9726C471.695 99.9726 473.392 99.595 474.949 98.8961C477.211 101.302 480.401 102.747 483.832 102.75C484.585 102.75 485.346 102.681 486.107 102.537C489.03 101.987 491.534 100.42 493.287 98.2813H493.286C494.43 96.8886 495.254 95.2446 495.694 93.4708C497.716 93.2717 499.722 92.5666 501.495 91.3177C503.182 90.132 504.489 88.5827 505.365 86.8534C506.241 85.1255 506.693 83.2188 506.693 81.2951C506.693 80.013 506.484 78.726 506.075 77.4851C507.127 76.6269 508.057 75.5802 508.799 74.3552C509.999 72.3791 510.577 70.1754 510.577 68.0095C510.576 64.843 509.351 61.7366 507.059 59.4127ZM505.114 72.1132C503.875 74.1556 501.879 75.4267 499.698 75.8046C499.027 75.92 498.577 76.5587 498.692 77.2287C498.808 77.9007 499.445 78.3512 500.115 78.2358C500.616 78.1505 501.11 78.0255 501.593 77.8676C502.121 78.9584 502.38 80.1282 502.38 81.2949C502.381 82.5422 502.087 83.7815 501.52 84.8992C500.953 86.017 500.116 87.0111 499.017 87.7859C497.633 88.7565 496.062 89.2198 494.497 89.2212C494.375 89.2212 494.252 89.2118 494.13 89.2055C494.104 89.0001 494.079 88.7962 494.041 88.5921V88.5905C493.771 87.1598 493.215 85.8509 492.452 84.7143L492.359 84.5751L492.232 84.4659C491.298 83.6661 490.06 82.3508 489.104 81.0103C488.625 80.3415 488.215 79.6649 487.94 79.0627C487.661 78.4603 487.533 77.9338 487.538 77.6226C487.538 77.4835 487.559 77.3902 487.582 77.327C487.606 77.2654 487.629 77.2289 487.677 77.1785C488.158 76.6979 488.158 75.9153 487.677 75.4347C487.195 74.9527 486.416 74.9527 485.935 75.4347V75.4333C485.635 75.7335 485.408 76.0955 485.269 76.475C485.13 76.8544 485.074 77.2449 485.074 77.6227C485.079 78.478 485.337 79.2872 485.7 80.0903C486.251 81.2886 487.072 82.479 487.958 83.565C488.792 84.5863 489.68 85.5015 490.475 86.2035C491.022 87.0476 491.422 87.9994 491.619 89.0474C491.702 89.4885 491.748 89.9263 491.754 90.3483L491.755 90.3547C491.756 90.4117 491.756 90.4671 491.756 90.5239C491.756 92.3894 491.094 94.1519 489.955 95.5414C488.814 96.9296 487.21 97.9349 485.31 98.2937C484.812 98.3872 484.319 98.433 483.834 98.433C481.221 98.4346 478.804 97.1224 477.351 95.0293C478.133 94.2357 478.799 93.3031 479.309 92.2472C479.941 90.9382 480.273 89.5533 480.334 88.1844C480.364 87.5013 479.836 86.926 479.157 86.8959C478.477 86.866 477.901 87.3938 477.871 88.0738C477.825 89.1219 477.574 90.1715 477.09 91.172L477.089 91.1752C476.573 92.247 475.85 93.1433 474.99 93.8533L474.986 93.8563C473.574 95.0167 471.786 95.6554 469.961 95.6554C468.81 95.6554 467.644 95.4024 466.535 94.868C464.481 93.8752 463.054 92.1206 462.424 90.1035L462.423 90.1019C462.182 89.3366 462.057 88.5351 462.057 87.7275C462.057 86.5751 462.31 85.4084 462.846 84.2923C463.142 83.6789 462.884 82.9423 462.271 82.6467C461.659 82.3511 460.922 82.6088 460.627 83.2222C459.928 84.6734 459.594 86.2147 459.594 87.7276C459.594 88.4611 459.677 89.1868 459.829 89.8982C458.867 90.4245 457.781 90.7597 456.608 90.8469H456.606C456.415 90.8595 456.225 90.8658 456.039 90.8658C454.19 90.8658 452.476 90.2239 451.114 89.1332C449.928 88.1845 449.019 86.8995 448.534 85.4118C449.401 84.555 450.12 83.5528 450.645 82.4414C450.935 81.8264 450.672 81.0898 450.057 80.7988C449.442 80.5079 448.708 80.7703 448.417 81.3869C447.929 82.4207 447.222 83.3378 446.351 84.0728C445.118 85.1144 443.561 85.7864 441.827 85.9113H441.824C441.634 85.9239 441.445 85.9317 441.258 85.9317C437.345 85.9333 434.007 83.0436 433.443 79.1706L433.441 79.161L433.44 79.1514C433.41 78.9682 433.388 78.7751 433.374 78.5761C433.361 78.3831 433.354 78.1934 433.354 78.0038C433.354 77.5042 433.401 77.0157 433.489 76.54C433.612 75.8696 433.17 75.2262 432.501 75.1012C431.832 74.9778 431.19 75.4207 431.066 76.0909C430.951 76.7105 430.89 77.3508 430.89 78.0038L430.893 78.0748C429.785 77.9514 428.71 77.5991 427.747 77.0332C426.532 76.3201 425.496 75.2784 424.781 73.941C424.144 72.7491 423.845 71.4749 423.844 70.2149C423.844 68.5898 424.348 66.9933 425.28 65.6591C425.637 66.1649 426.044 66.6455 426.499 67.0928C427.537 68.1142 428.742 68.8715 430.018 69.3645C430.652 69.6113 431.366 69.2951 431.611 68.6596C431.857 68.0241 431.541 67.3095 430.907 67.0643C429.933 66.6865 429.019 66.1128 428.226 65.3318L428.224 65.3304C427.526 64.6457 426.984 63.8649 426.593 63.0286C426.098 61.9695 425.85 60.8201 425.85 59.6693C425.85 57.6663 426.598 55.6761 428.106 54.1317C429.389 52.8243 431.003 52.059 432.681 51.8299H432.683H432.684L432.689 51.8283C433.044 51.7809 433.4 51.7556 433.759 51.7572C435.758 51.7588 437.75 52.5083 439.291 54.0179C439.778 54.4936 440.557 54.4858 441.033 53.999C441.51 53.5122 441.501 52.7312 441.015 52.2553C439.053 50.3313 436.509 49.3481 433.961 49.2991C434.251 48.1182 434.805 47.0212 435.579 46.0963C436.649 44.8159 438.122 43.8674 439.875 43.4627C440.47 43.3266 441.064 43.2604 441.648 43.2604C442.68 43.2604 443.683 43.4659 444.611 43.8421C444.347 44.7605 444.202 45.7297 444.202 46.7302C444.202 47.4115 444.754 47.9633 445.434 47.9633C446.114 47.9633 446.665 47.4117 446.665 46.7302C446.665 45.6505 446.883 44.6199 447.27 43.684C447.865 42.2549 448.871 41.0345 450.136 40.1728C451.404 39.3114 452.925 38.8117 454.575 38.8101C456.948 38.8117 459.069 39.852 460.522 41.5102L460.524 41.5118C461.746 42.9044 462.483 44.7256 462.484 46.7301C462.484 47.4113 463.035 47.9631 463.716 47.9631C464.396 47.9631 464.947 47.4115 464.947 46.7301C464.948 44.4521 464.212 42.337 462.966 40.6247C463.604 39.7396 464.417 38.9902 465.358 38.4337C466.535 37.7366 467.903 37.3383 469.374 37.3383C471.064 37.3383 472.619 37.8662 473.903 38.769C475.188 39.67 476.193 40.9458 476.761 42.4333L476.76 42.4319C477.095 43.3124 477.279 44.2593 477.279 45.2584C477.279 45.9397 477.831 46.4916 478.511 46.4916C479.191 46.4916 479.743 45.9398 479.743 45.2584C479.743 44.2402 479.591 43.257 479.318 42.3275C480.776 40.9664 482.713 40.1965 484.711 40.1965C485.754 40.1965 486.812 40.4052 487.835 40.8446C489.261 41.4597 490.407 42.4381 491.224 43.63C492.04 44.8204 492.521 46.2226 492.603 47.6706C492.611 47.8193 492.615 47.9694 492.615 48.1195C492.615 49.1643 492.408 50.2222 491.97 51.2465C491.701 51.8726 491.99 52.598 492.615 52.8667C493.24 53.137 493.964 52.8462 494.233 52.2202C494.69 51.1579 494.953 50.056 495.042 48.959C496.249 49.0397 497.426 49.4063 498.468 50.0229C499.657 50.728 500.669 51.7554 501.363 53.074V53.0754C501.97 54.2264 502.254 55.453 502.255 56.6656C502.255 57.2221 502.191 57.7721 502.073 58.3113C501.33 58.0235 500.566 57.8259 499.797 57.7169C499.123 57.622 498.501 58.0917 498.406 58.7682C498.311 59.4418 498.78 60.066 499.454 60.1609C500.227 60.2701 500.989 60.493 501.72 60.8376C501.849 61.0479 502.04 61.2232 502.284 61.3276C502.436 61.3924 502.594 61.4241 502.751 61.4255C503.205 61.7291 503.619 62.069 503.988 62.4453L503.972 62.428L503.991 62.4485C505.467 63.9408 506.265 65.9564 506.265 68.0098C506.265 69.4115 505.895 70.8266 505.114 72.1132Z" fill="black" fill-opacity="0.8"/>
<path d="M556.934 334.564C556.934 328.113 562.162 322.869 568.593 322.869H609.397C615.827 322.869 621.055 328.113 621.055 334.564V404.733C621.055 411.183 615.827 416.428 609.397 416.428H568.593C562.162 416.428 556.934 411.183 556.934 404.733V334.564ZM594.824 404.733C594.824 403.182 594.21 401.695 593.117 400.598C592.023 399.501 590.541 398.885 588.995 398.885C587.449 398.885 585.966 399.501 584.873 400.598C583.78 401.695 583.166 403.182 583.166 404.733C583.166 406.284 583.78 407.771 584.873 408.867C585.966 409.964 587.449 410.58 588.995 410.58C590.541 410.58 592.023 409.964 593.117 408.867C594.21 407.771 594.824 406.284 594.824 404.733ZM609.397 334.564H568.593V393.038H609.397V334.564Z" fill="black" fill-opacity="0.8"/>
<path d="M166.355 313.907L151.847 299.38C151.618 299.15 151.306 299.021 150.982 299.021H123.2C119.919 299.021 117.249 301.694 117.249 304.98V353.14C117.249 356.426 119.919 359.099 123.2 359.099H160.763C164.044 359.099 166.714 356.426 166.714 353.14V314.774C166.714 314.449 166.585 314.137 166.355 313.907ZM152.206 303.207L162.533 313.548H155.708C154.773 313.548 153.893 313.183 153.232 312.521C152.571 311.859 152.206 310.978 152.206 310.041V303.207ZM164.265 353.14C164.265 355.074 162.694 356.647 160.763 356.647H123.2C121.269 356.647 119.698 355.074 119.698 353.14V304.98C119.698 303.046 121.269 301.473 123.2 301.473H149.757V310.041C149.757 311.633 150.376 313.129 151.5 314.255C152.624 315.38 154.119 316 155.708 316H164.265L164.265 353.14Z" fill="black" fill-opacity="0.8"/>
<path d="M144.219 340.265H143.671C142.994 340.265 142.446 340.814 142.446 341.491C142.446 342.168 142.994 342.717 143.671 342.717H144.219C144.895 342.717 145.443 342.168 145.443 341.491C145.443 340.814 144.895 340.265 144.219 340.265Z" fill="black" fill-opacity="0.8"/>
<path d="M139.709 340.265H127.816C127.14 340.265 126.592 340.814 126.592 341.491C126.592 342.168 127.14 342.717 127.816 342.717H139.709C140.386 342.717 140.934 342.168 140.934 341.491C140.934 340.814 140.386 340.265 139.709 340.265Z" fill="black" fill-opacity="0.8"/>
<path d="M156.147 334.663H127.816C127.14 334.663 126.592 335.211 126.592 335.889C126.592 336.566 127.14 337.115 127.816 337.115H156.147C156.823 337.115 157.371 336.566 157.371 335.889C157.371 335.211 156.823 334.663 156.147 334.663Z" fill="black" fill-opacity="0.8"/>
<path d="M156.147 329.06H127.816C127.14 329.06 126.592 329.609 126.592 330.286C126.592 330.963 127.14 331.512 127.816 331.512H156.147C156.823 331.512 157.371 330.963 157.371 330.286C157.371 329.609 156.823 329.06 156.147 329.06Z" fill="black" fill-opacity="0.8"/>
<path d="M156.147 323.457H127.816C127.14 323.457 126.592 324.006 126.592 324.684C126.592 325.361 127.14 325.91 127.816 325.91H156.147C156.823 325.91 157.371 325.361 157.371 324.684C157.371 324.006 156.823 323.457 156.147 323.457Z" fill="black" fill-opacity="0.8"/>
<path d="M548.385 467.182C548.385 479.002 538.816 488.584 527.011 488.584C515.207 488.584 505.638 479.002 505.638 467.182V448.837C505.638 437.017 515.207 427.434 527.011 427.434C538.816 427.434 548.385 437.017 548.385 448.837V454.952" stroke="black" stroke-opacity="0.8" stroke-width="1.5" stroke-linecap="round"/>
<path d="M522.431 447.308C522.431 444.775 524.482 442.722 527.011 442.722C529.541 442.722 531.591 444.775 531.591 447.308V453.423C531.591 455.956 529.541 458.009 527.011 458.009C524.482 458.009 522.431 455.956 522.431 453.423V447.308Z" stroke="black" stroke-opacity="0.8" stroke-width="1.5"/>
<path d="M527.011 427.434V442.722" stroke="black" stroke-opacity="0.8" stroke-width="1.5" stroke-linecap="round"/>
<path d="M592.796 211.86L581.209 200.257V191.417C581.209 190.056 580.106 188.952 578.747 188.952H524.588C523.229 188.952 522.126 190.056 522.126 191.417V265.369C522.126 266.73 523.229 267.834 524.588 267.834H578.747C580.106 267.834 581.209 266.73 581.209 265.369V226.949L592.796 215.345C593.759 214.384 593.759 212.821 592.796 211.86ZM546.549 232.406L557.509 243.381L544.723 245.21L546.549 232.406ZM559.412 241.801L548.122 230.496L568.538 210.053L579.828 221.358L559.412 241.801ZM581.568 219.615L570.278 208.31L576.285 202.298L587.575 213.603L581.568 219.615ZM527.05 262.904V193.882H576.285V198.812L566.438 208.672H536.897V211.138H563.976L559.053 216.068H536.897V218.533H556.591L551.667 223.463H536.897V225.928H549.206L544.863 230.276C544.693 230.447 544.558 230.646 544.444 230.858H536.897V233.323H543.93L543.226 238.253H536.897V240.719H542.876L542.172 245.649H536.897V248.114H541.82L558.24 245.765C558.767 245.688 559.257 245.444 559.634 245.067L576.285 228.393V262.904H527.05Z" fill="black" fill-opacity="0.8"/>
<path d="M486.974 124.745H225.682C216.35 124.745 207.018 134.089 207.018 143.434V353.685C207.018 363.029 216.35 372.374 225.682 372.374H319.001V391.063C319.001 404.04 302.188 409.751 281.673 409.751V423.766H430.983V409.746C410.463 409.746 393.656 404.035 393.656 391.058V372.369H486.974C496.306 372.369 505.638 363.024 505.638 353.68V143.434C505.638 134.089 496.306 124.745 486.974 124.745ZM495.684 353.685C495.684 357.517 490.796 362.406 486.974 362.406H225.682C221.855 362.406 216.972 357.517 216.972 353.685V334.996H495.684V353.685Z" fill="black" fill-opacity="0.8"/>
<path d="M356.328 358.36C358.906 358.36 360.996 356.267 360.996 353.685C360.996 351.103 358.906 349.01 356.328 349.01C353.75 349.01 351.66 351.103 351.66 353.685C351.66 356.267 353.75 358.36 356.328 358.36Z" fill="black" fill-opacity="0.8"/>
<path d="M157.862 55.1851C159.275 52.6457 159.982 51.376 161.039 51.376C162.096 51.376 162.802 52.6457 164.216 55.1851L164.582 55.8421C164.983 56.5637 165.184 56.9245 165.497 57.1625C165.811 57.4006 166.201 57.489 166.981 57.6657L167.691 57.8266C170.436 58.4486 171.809 58.7595 172.135 59.8111C172.462 60.8625 171.526 61.9582 169.655 64.1497L169.17 64.7166C168.639 65.3393 168.373 65.6506 168.253 66.0359C168.134 66.4211 168.174 66.8366 168.254 67.6674L168.327 68.4237C168.61 71.3475 168.752 72.8095 167.897 73.4592C167.042 74.1092 165.757 73.5167 163.187 72.3316L162.522 72.0249C161.791 71.6883 161.426 71.5198 161.039 71.5198C160.652 71.5198 160.287 71.6883 159.556 72.0249L158.891 72.3316C156.321 73.5167 155.036 74.1092 154.181 73.4592C153.326 72.8095 153.467 71.3475 153.75 68.4237L153.823 67.6674C153.904 66.8366 153.944 66.4211 153.824 66.0359C153.705 65.6506 153.439 65.3393 152.907 64.7166L152.423 64.1497C150.551 61.9582 149.616 60.8625 149.942 59.8111C150.269 58.7595 151.641 58.4486 154.387 57.8266L155.097 57.6657C155.877 57.489 156.267 57.4006 156.58 57.1625C156.893 56.9245 157.094 56.5637 157.496 55.8421L157.862 55.1851Z" fill="black" fill-opacity="0.8"/>
<path fill-rule="evenodd" clip-rule="evenodd" d="M161.039 38.5241C161.963 38.5241 162.713 39.2747 162.713 40.2005V44.6707C162.713 45.5965 161.963 46.347 161.039 46.347C160.114 46.347 159.365 45.5965 159.365 44.6707V40.2005C159.365 39.2747 160.114 38.5241 161.039 38.5241ZM175.615 47.9553C176.269 48.61 176.269 49.6714 175.615 50.326L174.849 51.0933C174.196 51.7479 173.136 51.7479 172.482 51.0933C171.828 50.4386 171.828 49.3772 172.482 48.7226L173.248 47.9553C173.902 47.3007 174.962 47.3007 175.615 47.9553ZM146.462 47.9556C147.116 47.3009 148.176 47.3009 148.83 47.9556L149.596 48.7228C150.25 49.3775 150.25 50.4389 149.596 51.0935C148.942 51.7482 147.882 51.7482 147.229 51.0935L146.462 50.3263C145.809 49.6716 145.809 48.6102 146.462 47.9556ZM137.044 62.5516C137.044 61.6259 137.793 60.8753 138.718 60.8753H143.182C144.106 60.8753 144.856 61.6259 144.856 62.5516C144.856 63.4774 144.106 64.228 143.182 64.228H138.718C137.793 64.228 137.044 63.4774 137.044 62.5516ZM177.222 62.5516C177.222 61.6259 177.971 60.8753 178.896 60.8753H183.36C184.285 60.8753 185.034 61.6259 185.034 62.5516C185.034 63.4774 184.285 64.228 183.36 64.228H178.896C177.971 64.228 177.222 63.4774 177.222 62.5516ZM149.596 74.01C150.25 74.6646 150.25 75.7261 149.596 76.3808L148.83 77.1474C148.176 77.8021 147.116 77.8021 146.463 77.1474C145.809 76.4927 145.809 75.4315 146.463 74.7768L147.228 74.01C147.882 73.3553 148.942 73.3553 149.596 74.01ZM172.482 74.0104C173.136 73.356 174.196 73.356 174.849 74.0104L175.615 74.7773C176.269 75.4319 176.269 76.4934 175.615 77.1481C174.961 77.8025 173.901 77.8025 173.247 77.1481L172.482 76.3812C171.828 75.7265 171.828 74.6651 172.482 74.0104ZM161.039 78.7562C161.963 78.7562 162.713 79.5068 162.713 80.4326V84.9028C162.713 85.8286 161.963 86.5791 161.039 86.5791C160.114 86.5791 159.365 85.8286 159.365 84.9028V80.4326C159.365 79.5068 160.114 78.7562 161.039 78.7562Z" fill="black" fill-opacity="0.8"/>
<path d="M105.366 81.5294C106.55 79.4034 107.141 78.3404 108.026 78.3404C108.911 78.3404 109.503 79.4034 110.686 81.5294L110.992 82.0794C111.329 82.6835 111.497 82.9856 111.759 83.1849C112.021 83.3842 112.348 83.4582 113.001 83.6061L113.595 83.7409C115.894 84.2616 117.043 84.5219 117.316 85.4023C117.59 86.2826 116.806 87.1999 115.239 89.0346L114.834 89.5092C114.389 90.0305 114.166 90.2912 114.066 90.6138C113.966 90.9362 114 91.2841 114.067 91.9796L114.128 92.6129C114.365 95.0607 114.483 96.2846 113.768 96.8286C113.052 97.3728 111.976 96.8767 109.824 95.8846L109.267 95.6278C108.656 95.346 108.35 95.2049 108.026 95.2049C107.702 95.2049 107.396 95.346 106.785 95.6278L106.228 95.8846C104.076 96.8767 103 97.3728 102.284 96.8286C101.569 96.2846 101.687 95.0607 101.924 92.6129L101.985 91.9796C102.053 91.2841 102.086 90.9362 101.986 90.6138C101.886 90.2912 101.663 90.0305 101.218 89.5092L100.813 89.0346C99.246 87.1999 98.4626 86.2826 98.736 85.4023C99.0094 84.5219 100.158 84.2616 102.457 83.7409L103.051 83.6061C103.704 83.4582 104.031 83.3842 104.293 83.1849C104.555 82.9856 104.724 82.6835 105.06 82.0794L105.366 81.5294Z" fill="black" fill-opacity="0.8"/>
<path fill-rule="evenodd" clip-rule="evenodd" d="M108.026 67.5806C108.8 67.5806 109.428 68.209 109.428 68.9841V72.7266C109.428 73.5017 108.8 74.1301 108.026 74.1301C107.252 74.1301 106.625 73.5017 106.625 72.7266V68.9841C106.625 68.209 107.252 67.5806 108.026 67.5806ZM120.23 75.4765C120.777 76.0246 120.777 76.9132 120.23 77.4613L119.588 78.1036C119.041 78.6517 118.154 78.6517 117.606 78.1036C117.059 77.5555 117.059 76.6669 117.606 76.1189L118.248 75.4765C118.795 74.9284 119.683 74.9284 120.23 75.4765ZM95.8225 75.4767C96.3699 74.9287 97.2573 74.9287 97.8046 75.4767L98.4461 76.1191C98.9934 76.6671 98.9934 77.5558 98.4461 78.1038C97.8988 78.6519 97.0113 78.6519 96.464 78.1038L95.8225 77.4615C95.2752 76.9134 95.2752 76.0248 95.8225 75.4767ZM87.937 87.6967C87.937 86.9216 88.5645 86.2932 89.3386 86.2932H93.0761C93.8501 86.2932 94.4776 86.9216 94.4776 87.6967C94.4776 88.4718 93.8501 89.1001 93.0761 89.1001H89.3386C88.5645 89.1001 87.937 88.4718 87.937 87.6967ZM121.574 87.6967C121.574 86.9216 122.202 86.2932 122.976 86.2932H126.714C127.488 86.2932 128.115 86.9216 128.115 87.6967C128.115 88.4718 127.488 89.1001 126.714 89.1001H122.976C122.202 89.1001 121.574 88.4718 121.574 87.6967ZM98.4459 97.2897C98.9932 97.8378 98.9932 98.7265 98.4459 99.2745L97.8048 99.9164C97.2575 100.464 96.37 100.464 95.8227 99.9164C95.2754 99.3683 95.2754 98.4798 95.8227 97.9317L96.4638 97.2897C97.0111 96.7416 97.8985 96.7416 98.4459 97.2897ZM117.606 97.2901C118.154 96.7422 119.041 96.7422 119.588 97.2901L120.229 97.9321C120.777 98.4802 120.777 99.3689 120.229 99.917C119.682 100.465 118.795 100.465 118.247 99.917L117.606 99.2749C117.059 98.7268 117.059 97.8382 117.606 97.2901ZM108.026 101.263C108.8 101.263 109.428 101.892 109.428 102.667V106.409C109.428 107.184 108.8 107.813 108.026 107.813C107.252 107.813 106.625 107.184 106.625 106.409V102.667C106.625 101.892 107.252 101.263 108.026 101.263Z" fill="black" fill-opacity="0.8"/>
<path d="M142.639 123.907C143.626 122.135 144.119 121.249 144.856 121.249C145.593 121.249 146.086 122.135 147.073 123.907L147.328 124.365C147.608 124.869 147.748 125.12 147.967 125.287C148.185 125.453 148.457 125.514 149.002 125.638L149.497 125.75C151.412 126.184 152.37 126.401 152.598 127.134C152.826 127.868 152.173 128.632 150.867 130.161L150.529 130.557C150.158 130.991 149.973 131.208 149.889 131.477C149.806 131.746 149.834 132.036 149.89 132.615L149.941 133.143C150.138 135.183 150.237 136.203 149.641 136.656C149.044 137.11 148.148 136.696 146.354 135.87L145.89 135.656C145.381 135.421 145.126 135.303 144.856 135.303C144.586 135.303 144.331 135.421 143.821 135.656L143.358 135.87C141.564 136.696 140.668 137.11 140.071 136.656C139.475 136.203 139.574 135.183 139.771 133.143L139.822 132.615C139.878 132.036 139.906 131.746 139.823 131.477C139.739 131.208 139.554 130.991 139.183 130.557L138.845 130.161C137.539 128.632 136.886 127.868 137.114 127.134C137.342 126.401 138.3 126.184 140.215 125.75L140.71 125.638C141.255 125.514 141.527 125.453 141.745 125.287C141.964 125.12 142.104 124.869 142.384 124.365L142.639 123.907Z" fill="black" fill-opacity="0.8"/>
<path fill-rule="evenodd" clip-rule="evenodd" d="M144.856 112.283C145.501 112.283 146.024 112.807 146.024 113.453V116.571C146.024 117.217 145.501 117.741 144.856 117.741C144.211 117.741 143.688 117.217 143.688 116.571V113.453C143.688 112.807 144.211 112.283 144.856 112.283ZM155.026 118.863C155.482 119.32 155.482 120.06 155.026 120.517L154.491 121.052C154.035 121.509 153.296 121.509 152.839 121.052C152.383 120.595 152.383 119.855 152.839 119.398L153.374 118.863C153.83 118.406 154.57 118.406 155.026 118.863ZM134.686 118.863C135.142 118.406 135.882 118.406 136.338 118.863L136.873 119.398C137.329 119.855 137.329 120.596 136.873 121.052C136.417 121.509 135.677 121.509 135.221 121.052L134.686 120.517C134.23 120.06 134.23 119.32 134.686 118.863ZM128.115 129.046C128.115 128.4 128.638 127.877 129.283 127.877H132.398C133.043 127.877 133.566 128.4 133.566 129.046C133.566 129.692 133.043 130.216 132.398 130.216H129.283C128.638 130.216 128.115 129.692 128.115 129.046ZM156.146 129.046C156.146 128.4 156.669 127.877 157.314 127.877H160.429C161.074 127.877 161.597 128.4 161.597 129.046C161.597 129.692 161.074 130.216 160.429 130.216H157.314C156.669 130.216 156.146 129.692 156.146 129.046ZM136.872 137.041C137.329 137.497 137.329 138.238 136.872 138.695L136.338 139.229C135.882 139.686 135.143 139.686 134.687 139.229C134.23 138.773 134.23 138.032 134.687 137.576L135.221 137.041C135.677 136.584 136.416 136.584 136.872 137.041ZM152.839 137.041C153.296 136.584 154.035 136.584 154.491 137.041L155.025 137.576C155.482 138.033 155.482 138.773 155.025 139.23C154.569 139.686 153.83 139.686 153.374 139.23L152.839 138.695C152.383 138.238 152.383 137.498 152.839 137.041ZM144.856 140.352C145.501 140.352 146.024 140.876 146.024 141.521V144.64C146.024 145.286 145.501 145.81 144.856 145.81C144.211 145.81 143.688 145.286 143.688 144.64V141.521C143.688 140.876 144.211 140.352 144.856 140.352Z" fill="black" fill-opacity="0.8"/>
<path d="M670.408 254.407C671.861 251.89 672.588 250.632 673.645 250.649C674.701 250.665 675.388 251.946 676.762 254.507L677.117 255.17C677.508 255.898 677.703 256.261 678.012 256.504C678.322 256.747 678.71 256.842 679.488 257.031L680.195 257.203C682.93 257.868 684.298 258.201 684.608 259.257C684.918 260.314 683.965 261.394 682.06 263.556L681.566 264.115C681.025 264.729 680.754 265.037 680.629 265.42C680.503 265.803 680.537 266.219 680.604 267.051L680.665 267.809C680.903 270.736 681.021 272.2 680.156 272.837C679.291 273.473 678.015 272.86 675.464 271.635L674.804 271.318C674.079 270.97 673.716 270.796 673.329 270.789C672.942 270.783 672.574 270.946 671.839 271.271L671.169 271.567C668.58 272.712 667.286 273.284 666.441 272.621C665.597 271.957 665.761 270.498 666.09 267.579L666.175 266.824C666.268 265.994 666.315 265.58 666.201 265.193C666.088 264.806 665.827 264.49 665.305 263.859L664.83 263.285C662.993 261.064 662.074 259.954 662.417 258.908C662.76 257.861 664.137 257.572 666.892 256.993L667.605 256.844C668.387 256.679 668.779 256.597 669.096 256.364C669.413 256.131 669.619 255.773 670.032 255.058L670.408 254.407Z" fill="black" fill-opacity="0.8"/>
<path fill-rule="evenodd" clip-rule="evenodd" d="M673.846 237.799C674.77 237.813 675.508 238.575 675.494 239.501L675.424 243.971C675.409 244.896 674.648 245.635 673.723 245.62C672.799 245.606 672.061 244.843 672.076 243.918L672.146 239.448C672.16 238.523 672.922 237.784 673.846 237.799ZM688.273 247.458C688.917 248.123 688.9 249.184 688.236 249.828L687.458 250.583C686.794 251.228 685.734 251.211 685.091 250.546C684.447 249.881 684.464 248.82 685.128 248.176L685.906 247.421C686.57 246.776 687.63 246.793 688.273 247.458ZM659.123 246.999C659.787 246.355 660.847 246.371 661.491 247.036L662.245 247.816C662.888 248.48 662.871 249.542 662.208 250.186C661.544 250.83 660.484 250.813 659.84 250.149L659.086 249.369C658.443 248.705 658.459 247.643 659.123 246.999ZM649.477 261.445C649.491 260.519 650.253 259.78 651.177 259.795L655.641 259.865C656.565 259.88 657.303 260.642 657.288 261.568C657.274 262.493 656.513 263.232 655.588 263.217L651.124 263.147C650.2 263.133 649.462 262.37 649.477 261.445ZM689.651 262.077C689.665 261.152 690.427 260.413 691.351 260.428L695.815 260.498C696.739 260.513 697.477 261.275 697.462 262.2C697.448 263.126 696.687 263.865 695.762 263.85L691.298 263.78C690.374 263.765 689.636 263.003 689.651 262.077ZM661.848 273.099C662.492 273.764 662.475 274.825 661.811 275.469L661.033 276.224C660.37 276.868 659.31 276.852 658.666 276.187C658.023 275.522 658.039 274.461 658.703 273.816L659.481 273.062C660.145 272.417 661.205 272.434 661.848 273.099ZM684.732 273.46C685.396 272.816 686.456 272.833 687.099 273.497L687.853 274.276C688.496 274.941 688.48 276.002 687.816 276.646C687.152 277.29 686.092 277.274 685.448 276.609L684.695 275.83C684.051 275.165 684.068 274.104 684.732 273.46ZM673.216 278.025C674.14 278.039 674.878 278.802 674.863 279.727L674.793 284.197C674.779 285.122 674.018 285.861 673.093 285.847C672.169 285.832 671.431 285.07 671.446 284.144L671.516 279.675C671.53 278.749 672.291 278.01 673.216 278.025Z" fill="black" fill-opacity="0.8"/>
<path d="M617.506 279.922C618.722 277.815 619.331 276.762 620.215 276.776C621.1 276.79 621.675 277.862 622.825 280.006L623.123 280.561C623.45 281.17 623.613 281.475 623.872 281.678C624.131 281.882 624.457 281.961 625.107 282.119L625.7 282.263C627.99 282.82 629.134 283.098 629.394 283.983C629.654 284.867 628.856 285.772 627.261 287.582L626.848 288.05C626.394 288.564 626.168 288.822 626.063 289.143C625.957 289.463 625.986 289.812 626.042 290.508L626.093 291.142C626.292 293.593 626.391 294.819 625.667 295.352C624.943 295.885 623.875 295.372 621.739 294.346L621.186 294.08C620.579 293.789 620.275 293.643 619.951 293.638C619.627 293.633 619.319 293.769 618.703 294.041L618.143 294.289C615.976 295.247 614.892 295.726 614.185 295.171C613.478 294.616 613.615 293.394 613.891 290.95L613.962 290.318C614.04 289.624 614.079 289.276 613.984 288.952C613.889 288.628 613.67 288.364 613.233 287.836L612.835 287.355C611.298 285.496 610.529 284.566 610.816 283.69C611.103 282.814 612.256 282.572 614.562 282.088L615.159 281.962C615.814 281.825 616.142 281.756 616.407 281.561C616.672 281.366 616.845 281.066 617.191 280.468L617.506 279.922Z" fill="black" fill-opacity="0.8"/>
<path fill-rule="evenodd" clip-rule="evenodd" d="M620.384 266.018C621.158 266.03 621.776 266.668 621.763 267.443L621.705 271.185C621.693 271.96 621.055 272.578 620.281 272.566C619.507 272.554 618.89 271.916 618.902 271.141L618.961 267.399C618.973 266.624 619.61 266.005 620.384 266.018ZM632.463 274.105C633.002 274.661 632.988 275.55 632.432 276.089L631.78 276.721C631.224 277.261 630.337 277.247 629.798 276.69C629.26 276.133 629.274 275.245 629.829 274.705L630.481 274.073C631.037 273.534 631.924 273.548 632.463 274.105ZM608.058 273.72C608.614 273.181 609.501 273.195 610.04 273.752L610.671 274.404C611.21 274.961 611.196 275.849 610.64 276.388C610.084 276.928 609.197 276.914 608.658 276.357L608.027 275.705C607.488 275.148 607.502 274.26 608.058 273.72ZM599.982 285.814C599.994 285.039 600.631 284.421 601.405 284.433L605.142 284.492C605.916 284.504 606.534 285.142 606.522 285.917C606.51 286.692 605.872 287.311 605.098 287.299L601.361 287.24C600.587 287.227 599.97 286.589 599.982 285.814ZM633.616 286.344C633.628 285.569 634.265 284.951 635.039 284.963L638.776 285.022C639.55 285.034 640.168 285.672 640.156 286.447C640.144 287.222 639.506 287.84 638.733 287.828L634.995 287.769C634.221 287.757 633.604 287.119 633.616 286.344ZM610.339 295.571C610.878 296.128 610.864 297.017 610.308 297.556L609.657 298.188C609.101 298.727 608.214 298.713 607.675 298.156C607.137 297.6 607.151 296.712 607.707 296.172L608.358 295.54C608.913 295.001 609.801 295.015 610.339 295.571ZM629.498 295.874C630.054 295.334 630.941 295.348 631.48 295.905L632.111 296.557C632.649 297.113 632.635 298.002 632.08 298.541C631.524 299.081 630.636 299.067 630.098 298.51L629.467 297.858C628.928 297.302 628.942 296.413 629.498 295.874ZM619.856 299.695C620.63 299.708 621.248 300.346 621.236 301.121L621.177 304.863C621.165 305.638 620.528 306.256 619.754 306.244C618.98 306.232 618.362 305.594 618.374 304.819L618.433 301.077C618.445 300.302 619.082 299.683 619.856 299.695Z" fill="black" fill-opacity="0.8"/>
<path d="M654.11 322.881C655.124 321.125 655.631 320.247 656.368 320.259C657.105 320.27 657.584 321.164 658.543 322.951L658.791 323.413C659.063 323.921 659.199 324.175 659.415 324.344C659.631 324.514 659.902 324.58 660.444 324.712L660.938 324.832C662.846 325.296 663.8 325.528 664.017 326.265C664.233 327.002 663.568 327.756 662.239 329.264L661.895 329.654C661.517 330.083 661.328 330.297 661.24 330.564C661.153 330.832 661.176 331.122 661.223 331.702L661.266 332.231C661.432 334.273 661.514 335.295 660.911 335.739C660.307 336.183 659.417 335.755 657.637 334.9L657.177 334.679C656.671 334.436 656.418 334.315 656.148 334.311C655.878 334.306 655.621 334.42 655.108 334.647L654.641 334.853C652.835 335.652 651.932 336.051 651.342 335.588C650.753 335.125 650.868 334.107 651.097 332.071L651.156 331.544C651.222 330.965 651.254 330.676 651.175 330.406C651.096 330.136 650.914 329.916 650.549 329.475L650.218 329.075C648.936 327.525 648.295 326.751 648.535 326.021C648.774 325.291 649.735 325.089 651.657 324.685L652.154 324.581C652.7 324.466 652.973 324.409 653.194 324.246C653.415 324.084 653.559 323.834 653.847 323.335L654.11 322.881Z" fill="black" fill-opacity="0.8"/>
<path fill-rule="evenodd" clip-rule="evenodd" d="M656.509 311.294C657.154 311.304 657.668 311.836 657.658 312.481L657.609 315.6C657.599 316.245 657.068 316.761 656.423 316.751C655.778 316.74 655.263 316.209 655.274 315.563L655.322 312.445C655.333 311.799 655.864 311.283 656.509 311.294ZM666.574 318.033C667.023 318.497 667.012 319.237 666.548 319.686L666.005 320.213C665.542 320.663 664.803 320.651 664.354 320.187C663.905 319.723 663.917 318.983 664.38 318.533L664.923 318.007C665.386 317.557 666.125 317.569 666.574 318.033ZM646.237 317.713C646.7 317.263 647.44 317.275 647.889 317.739L648.415 318.282C648.864 318.746 648.852 319.486 648.389 319.936C647.925 320.385 647.186 320.374 646.737 319.91L646.211 319.366C645.762 318.902 645.774 318.162 646.237 317.713ZM639.507 327.791C639.517 327.145 640.048 326.63 640.693 326.64L643.807 326.689C644.452 326.699 644.967 327.231 644.957 327.877C644.947 328.523 644.416 329.038 643.771 329.028L640.656 328.979C640.011 328.968 639.497 328.437 639.507 327.791ZM667.535 328.232C667.545 327.587 668.076 327.071 668.721 327.081L671.836 327.13C672.481 327.141 672.995 327.672 672.985 328.318C672.975 328.964 672.444 329.479 671.799 329.469L668.685 329.42C668.04 329.41 667.525 328.878 667.535 328.232ZM648.138 335.922C648.587 336.386 648.575 337.126 648.112 337.576L647.57 338.102C647.106 338.552 646.367 338.54 645.918 338.076C645.469 337.612 645.481 336.872 645.944 336.422L646.487 335.896C646.95 335.446 647.689 335.458 648.138 335.922ZM664.103 336.174C664.567 335.724 665.306 335.736 665.755 336.2L666.281 336.743C666.73 337.207 666.718 337.947 666.255 338.397C665.792 338.846 665.052 338.834 664.603 338.371L664.078 337.827C663.629 337.364 663.64 336.623 664.103 336.174ZM656.069 339.358C656.714 339.369 657.229 339.9 657.218 340.546L657.17 343.665C657.159 344.31 656.628 344.826 655.983 344.816C655.338 344.805 654.824 344.274 654.834 343.628L654.883 340.509C654.893 339.864 655.424 339.348 656.069 339.358Z" fill="black" fill-opacity="0.8"/>
<path d="M180.749 161.434H94.8992C90.0404 161.434 86.105 164.772 86.105 168.888V267.899C86.105 272.015 90.0404 275.353 94.8992 275.353H180.749C185.604 275.353 189.543 272.015 189.543 267.899V168.888C189.543 164.772 185.604 161.434 180.749 161.434ZM137.824 267.301C135.074 267.301 132.846 265.41 132.846 263.081C132.846 260.751 135.074 258.864 137.824 258.864C140.569 258.864 142.802 260.751 142.802 263.081C142.802 265.41 140.569 267.301 137.824 267.301ZM171.524 251.288H104.12V178.487H171.524V251.288Z" fill="black" fill-opacity="0.8"/>
<path d="M447.757 438.441H268.563C255.844 438.441 245.491 445.436 245.491 454.026V511.362C245.491 522.52 258.931 531.599 275.449 531.599H440.871C457.39 531.599 470.829 522.52 470.829 511.362V454.026C470.83 445.436 460.476 438.441 447.757 438.441ZM459.173 511.362C459.173 518.179 450.963 523.725 440.872 523.725H275.449C265.357 523.725 257.147 518.179 257.147 511.362V454.026C257.147 449.774 262.269 446.316 268.563 446.316H447.757C454.051 446.316 459.173 449.774 459.173 454.026V511.362H459.173Z" fill="black" fill-opacity="0.8"/>
<path d="M348.447 478.459H329.021V491.581H348.447V478.459Z" fill="black" fill-opacity="0.8"/>
<path d="M377.585 478.459H358.161V491.581H377.585V478.459Z" fill="black" fill-opacity="0.8"/>
<path d="M406.725 478.459H387.299V491.581H406.725V478.459Z" fill="black" fill-opacity="0.8"/>
<path d="M445.575 498.141H426.151V511.26H445.575V498.141Z" fill="black" fill-opacity="0.8"/>
<path d="M348.447 458.781H329.021V471.9H348.447V458.781Z" fill="black" fill-opacity="0.8"/>
<path d="M319.309 478.459H299.883V491.581H319.309V478.459Z" fill="black" fill-opacity="0.8"/>
<path d="M319.309 458.781H299.883V471.9H319.309V458.781Z" fill="black" fill-opacity="0.8"/>
<path d="M290.17 498.141H270.746V511.26H290.17V498.141Z" fill="black" fill-opacity="0.8"/>
<path d="M290.17 478.459H270.746V491.581H290.17V478.459Z" fill="black" fill-opacity="0.8"/>
<path d="M290.17 458.781H270.746V471.9H290.17V458.781Z" fill="black" fill-opacity="0.8"/>
<path d="M377.585 458.781H358.161V471.9H377.585V458.781Z" fill="black" fill-opacity="0.8"/>
<path d="M406.725 458.781H387.299V471.9H406.725V458.781Z" fill="black" fill-opacity="0.8"/>
<path d="M416.437 498.141H299.883V511.26H416.437V498.141Z" fill="black" fill-opacity="0.8"/>
<path d="M445.575 458.781H416.437V491.581H445.575V458.781Z" fill="black" fill-opacity="0.8"/>
<path d="M366.404 9.17239H291.291" stroke="black" stroke-opacity="0.8" stroke-width="2" stroke-linecap="round" stroke-linejoin="round"/>
<path d="M322.62 33.1352H329.948" stroke="black" stroke-opacity="0.8" stroke-width="2" stroke-miterlimit="10"/>
<path d="M318.956 33.1352H306.132" stroke="black" stroke-opacity="0.8" stroke-width="2" stroke-miterlimit="10"/>
<path d="M296.972 40.4731H307.78" stroke="black" stroke-opacity="0.8" stroke-width="2" stroke-miterlimit="10"/>
<path d="M311.444 40.4731H322.436" stroke="black" stroke-opacity="0.8" stroke-width="2" stroke-miterlimit="10"/>
<path d="M337.574 50.0135L332.994 55.5169L337.574 61.0204" stroke="black" stroke-opacity="0.8" stroke-width="2" stroke-linecap="round" stroke-linejoin="round"/>
<path d="M354.978 50.0135L359.558 55.5169L354.978 61.0204" stroke="black" stroke-opacity="0.8" stroke-width="2" stroke-linecap="round" stroke-linejoin="round"/>
<path d="M344.445 61.0212L348.109 50.0143" stroke="black" stroke-opacity="0.8" stroke-width="2" stroke-linecap="round" stroke-linejoin="round"/>
<path d="M345.819 76.6143C357.454 76.6143 366.887 67.1691 366.887 55.5178C366.887 43.8665 357.454 34.4212 345.819 34.4212C334.183 34.4212 324.75 43.8665 324.75 55.5178C324.75 67.1691 334.183 76.6143 345.819 76.6143Z" stroke="black" stroke-opacity="0.8" stroke-width="2" stroke-miterlimit="10"/>
<path d="M360.336 70.9715L375.614 86.2702" stroke="black" stroke-opacity="0.8" stroke-width="2" stroke-linecap="round" stroke-linejoin="round"/>
<path d="M322.62 33.1352H329.948" stroke="black" stroke-opacity="0.8" stroke-width="2" stroke-miterlimit="10"/>
<path d="M318.956 33.1352H306.132" stroke="black" stroke-opacity="0.8" stroke-width="2" stroke-miterlimit="10"/>
<path d="M296.972 40.4731H307.78" stroke="black" stroke-opacity="0.8" stroke-width="2" stroke-miterlimit="10"/>
<path d="M311.444 40.4731H322.436" stroke="black" stroke-opacity="0.8" stroke-width="2" stroke-miterlimit="10"/>
<path d="M296.972 55.0345H302.468" stroke="black" stroke-opacity="0.8" stroke-width="2" stroke-miterlimit="10"/>
<path d="M306.132 55.0345H318.772" stroke="black" stroke-opacity="0.8" stroke-width="2" stroke-miterlimit="10"/>
<path d="M318.956 62.3724H306.132" stroke="black" stroke-opacity="0.8" stroke-width="2" stroke-miterlimit="10"/>
<path d="M296.972 69.7103H302.283" stroke="black" stroke-opacity="0.8" stroke-width="2" stroke-miterlimit="10"/>
<path d="M305.948 69.7103H322.436" stroke="black" stroke-opacity="0.8" stroke-width="2" stroke-miterlimit="10"/>
<path d="M305.948 47.6965H318.772" stroke="black" stroke-opacity="0.8" stroke-width="2" stroke-miterlimit="10"/>
<path d="M318.956 77.0483H306.132" stroke="black" stroke-opacity="0.8" stroke-width="2" stroke-miterlimit="10"/>
<path d="M296.972 18.3448H302.468" stroke="black" stroke-opacity="0.8" stroke-width="2" stroke-miterlimit="10"/>
<path d="M306.132 18.3448H340.756" stroke="black" stroke-opacity="0.8" stroke-width="2" stroke-miterlimit="10"/>
<path d="M296.972 18.3448H302.468" stroke="black" stroke-opacity="0.8" stroke-width="2" stroke-miterlimit="10"/>
<path d="M306.132 18.3448H340.756" stroke="black" stroke-opacity="0.8" stroke-width="2" stroke-miterlimit="10"/>
<path d="M322.62 25.6827H348.084" stroke="black" stroke-opacity="0.8" stroke-width="2" stroke-miterlimit="10"/>
<path d="M318.956 25.6827H306.132" stroke="black" stroke-opacity="0.8" stroke-width="2" stroke-miterlimit="10"/>
<path d="M322.62 25.6827H348.084" stroke="black" stroke-opacity="0.8" stroke-width="2" stroke-miterlimit="10"/>
<path d="M318.956 25.6827H306.132" stroke="black" stroke-opacity="0.8" stroke-width="2" stroke-miterlimit="10"/>
<path d="M366.404 36.6896V1.83447H291.291V86.2207H355.412" stroke="black" stroke-opacity="0.8" stroke-width="2" stroke-linecap="round" stroke-linejoin="round"/>
</g>
<defs>
<clipPath id="clip0_1_2">
<rect width="698" height="532" fill="white"/>
</clipPath>
</defs>
</svg>
